<svg xmlns="http://www.w3.org/2000/svg" viewBox="0 0 50 50"><g fill="#0a70c8"><path d="M25 8c.5 0 1-.4 1-.9-.1-.5-.7-.9-1.2-.8-.4.1-.7.4-.8.7.1.6.5 1 1 1z"/><path d="M27.9 26c3.2 0 5.9-2.6 5.9-5.8s-2.6-5.9-5.8-5.9h-8.8c-.6 0-1 .4-1 1v8.8h-1c-.5-.1-1.1.2-1.2.8-.1.5.2 1.1.8 1.2h1.4V30h-1c-.6 0-1 .4-1 1s.4 1 1 1h1v4.9c.1.5.7.9 1.2.8.4-.1.7-.4.8-.8V32H27c.6 0 1-.4 1-1s-.4-1-1-1h-6.8v-4h7.7zm-7.8-9.7h7.8c2.2 0 3.9 1.7 3.9 3.9s-1.7 3.9-3.9 3.9h-7.8v-7.8z" /><path d="M25 50c13.7-.2 24.8-11.3 25-25C50 11.6 38.5 0 25 0 11.3.2.2 11.3 0 25.1.3 38.8 11.3 49.8 25 50zm0-47.9c12.2 0 23 10.7 23 23s-10.8 23-23 23-23-10.8-23-23 10.7-23 23-23z" /><path d="M25 44.2c10.2 0 19.1-8.9 19.1-19.1 0-8.7-6.5-16.6-15-18.6-.5-.1-1 .2-1.2.7-.1.5.2 1 .7 1.2 7.8 1.9 13.3 8.8 13.5 16.8-.3 9.3-7.8 16.9-17.1 17.1-9.4-.3-16.9-7.8-17.2-17.2.2-8 5.7-14.9 13.5-16.8.5-.2.7-.8.5-1.3-.2-.3-.5-.6-.9-.6-8.5 2-15 9.9-15 18.6-.1 10.2 8.8 19.2 19.1 19.2z"/></g></svg>