<svg data-name="Layer 1" xmlns="http://www.w3.org/2000/svg" xmlns:xlink="http://www.w3.org/1999/xlink" viewBox="0 0 49.99 54.93"><g fill="#0a70c8"><path d="M49.36 53.07h-1.55V4.63a.93.93 0 0 0-.92-.93H29.61a.93.93 0 0 0-.93.93v4h-1.85v-4a.93.93 0 0 0-.93-.93h-4V.93a.93.93 0 1 0-1.9 0V3.7h-4a.93.93 0 0 0-.93.93v4h-2.74a.93.93 0 0 0-.93.93v7.71H3.69a.93.93 0 0 0-.93.93v34.87H1.22a.93.93 0 0 0 0 1.86h48.14a.93.93 0 0 0 0-1.86zM17 5.55h8v3.09h-8zm-3.13 47.52h-.62v-1.54a.93.93 0 0 0-1.85 0v1.54h-.62V50h3.09zM20 29.31v23.76h-4.28v-4a.92.92 0 0 0-.92-.92H9.86a.93.93 0 0 0-.93.92v4H4.61V19.13H20v10.18zm.93-12h-7.68v-6.82h15.43v17.9h-6.79V25.3h2.78a.93.93 0 1 0 0-1.85h-2.78v-3.08h2.78a.93.93 0 0 0 0-1.86h-2.78v-.3a.92.92 0 0 0-.89-.93zm16.39 35.76H21.89V30.24h15.43zm8.64 0h-6.79v-25a.93.93 0 1 0-1.85 0v.31h-1.85v-.31a.93.93 0 1 0-1.85 0v.31h-3.09V5.55H46v47.52z" transform="translate(-.29)"/><path d="M25.9 51.22a.92.92 0 0 0 .93-.92V33A.93.93 0 1 0 25 33v17.3a.92.92 0 0 0 .9.92z" transform="translate(-.29)"/><path d="M29.61 51.22a.92.92 0 0 0 .92-.92V33a.93.93 0 1 0-1.85 0v17.3a.93.93 0 0 0 .93.92z" transform="translate(-.29)"/><path d="M33.31 51.22a.93.93 0 0 0 .93-.92V33a.93.93 0 0 0-1.86 0v17.3a.93.93 0 0 0 .93.92z" transform="translate(-.29)"/><path d="M34.54 11.73a.93.93 0 0 0 .93-.93V9.57a.93.93 0 1 0-1.85 0v1.23a.93.93 0 0 0 .92.93z" transform="translate(-.29)"/><path d="M38.25 11.73a.93.93 0 0 0 .92-.93V9.57a.93.93 0 1 0-1.85 0v1.23a.93.93 0 0 0 .93.93z" transform="translate(-.29)"/><path d="M42 11.73a.93.93 0 0 0 .93-.93V9.57a.93.93 0 0 0-1.86 0v1.23a.93.93 0 0 0 .93.93z" transform="translate(-.29)"/><path d="M34.54 17.9a.93.93 0 0 0 .93-.93v-1.23a.93.93 0 1 0-1.85 0V17a.93.93 0 0 0 .92.9z" transform="translate(-.29)"/><path d="M38.25 17.9a.93.93 0 0 0 .92-.93v-1.23a.93.93 0 1 0-1.85 0V17a.93.93 0 0 0 .93.9z" transform="translate(-.29)"/><path d="M42 17.9a.93.93 0 0 0 .93-.93v-1.23a.93.93 0 0 0-1.86 0V17a.93.93 0 0 0 .93.9z" transform="translate(-.29)"/><path d="M34.54 24.07a.93.93 0 0 0 .93-.93v-1.23a.93.93 0 1 0-1.85 0v1.23a.93.93 0 0 0 .92.93z" transform="translate(-.29)"/><path d="M38.25 24.07a.93.93 0 0 0 .92-.93v-1.23a.93.93 0 1 0-1.85 0v1.23a.93.93 0 0 0 .93.93z" transform="translate(-.29)"/><path d="M42 24.07a.93.93 0 0 0 .93-.93v-1.23a.93.93 0 0 0-1.86 0v1.23a.93.93 0 0 0 .93.93z" transform="translate(-.29)"/><path d="M8.62 26.54a.93.93 0 0 0 .93-.93v-1.23a.93.93 0 1 0-1.85 0v1.23a.93.93 0 0 0 .92.93z" transform="translate(-.29)"/><path d="M12.33 26.54a.93.93 0 0 0 .92-.93v-1.23a.93.93 0 1 0-1.85 0v1.23a.93.93 0 0 0 .93.93z" transform="translate(-.29)"/><path d="M16 26.54a.93.93 0 0 0 .93-.93v-1.23a.93.93 0 1 0-1.86 0v1.23a.93.93 0 0 0 .93.93z" transform="translate(-.29)"/><path d="M8.62 32.71a.93.93 0 0 0 .93-.93v-1.23a.93.93 0 1 0-1.85 0v1.23a.93.93 0 0 0 .92.93z" transform="translate(-.29)"/><path d="M12.33 32.71a.93.93 0 0 0 .92-.93v-1.23a.93.93 0 1 0-1.85 0v1.23a.93.93 0 0 0 .93.93z" transform="translate(-.29)"/><path d="M16 32.71a.93.93 0 0 0 .93-.93v-1.23a.93.93 0 1 0-1.86 0v1.23a.93.93 0 0 0 .93.93z" transform="translate(-.29)"/><path d="M8.62 38.88a.92.92 0 0 0 .93-.88v-1.28a.93.93 0 1 0-1.85 0V38a.92.92 0 0 0 .92.88z" transform="translate(-.29)"/><path d="M12.33 38.88a.92.92 0 0 0 .92-.93v-1.23a.93.93 0 1 0-1.85 0V38a.93.93 0 0 0 .93.88z" transform="translate(-.29)"/><path d="M16 38.88a.93.93 0 0 0 1-.88v-1.28a.93.93 0 0 0-1.86 0V38a.93.93 0 0 0 .86.88z" transform="translate(-.29)"/><path d="M8.62 45.05a.92.92 0 0 0 .93-.92v-1.24a.93.93 0 0 0-1.85 0v1.24a.92.92 0 0 0 .92.92z" transform="translate(-.29)"/><path d="M12.33 45.05a.92.92 0 0 0 .92-.92v-1.24a.93.93 0 0 0-1.85 0v1.24a.93.93 0 0 0 .93.92z" transform="translate(-.29)"/><path d="M16 45.05a.93.93 0 0 0 .93-.92v-1.24a.93.93 0 0 0-1.86 0v1.24a.93.93 0 0 0 .93.92z" transform="translate(-.29)"/><path d="M42 30.24a.93.93 0 0 0 .93-.93v-1.23a.93.93 0 0 0-1.86 0v1.23a.93.93 0 0 0 .93.93z" transform="translate(-.29)"/><path d="M42 36.41a.93.93 0 0 0 .93-.92v-1.24a.93.93 0 0 0-1.86 0v1.24a.93.93 0 0 0 .93.92z" transform="translate(-.29)"/><path d="M42 42.58a.93.93 0 0 0 .93-.92v-1.24a.93.93 0 0 0-1.86 0v1.24a.93.93 0 0 0 .93.92z" transform="translate(-.29)"/><path d="M42 48.75a.93.93 0 0 0 .93-.92v-1.24a.93.93 0 0 0-1.86 0v1.24a.93.93 0 0 0 .93.92z" transform="translate(-.29)"/><path d="M25.6 14.5a.93.93 0 0 0-.93-.92h-7.41a.93.93 0 0 0 0 1.85h7.41a.93.93 0 0 0 .93-.93z" transform="translate(-.29)"/></g></svg>