<svg data-name="Layer 1" xmlns="http://www.w3.org/2000/svg" xmlns:xlink="http://www.w3.org/1999/xlink" viewBox="0 0 49.99 54.93"><defs><linearGradient id="a" x1=".29" y1="27.46" x2="50.28" y2="27.46" gradientUnits="userSpaceOnUse"><stop offset="0" stop-color="#188ac7"/><stop offset="1" stop-color="#85b8dc"/></linearGradient><linearGradient id="b" x1="24.98" y1="41.66" x2="26.83" y2="41.66" xlink:href="#a"/><linearGradient id="c" x1="28.68" y1="41.66" x2="30.53" y2="41.66" xlink:href="#a"/><linearGradient id="d" x1="32.38" y1="41.66" x2="34.24" y2="41.66" xlink:href="#a"/><linearGradient id="e" x1="33.62" y1="10.18" x2="35.47" y2="10.18" xlink:href="#a"/><linearGradient id="f" x1="37.32" y1="10.18" x2="39.17" y2="10.18" xlink:href="#a"/><linearGradient id="g" x1="41.02" y1="10.18" x2="42.88" y2="10.18" xlink:href="#a"/><linearGradient id="h" x1="33.62" y1="16.35" x2="35.47" y2="16.35" xlink:href="#a"/><linearGradient id="i" x1="37.32" y1="16.35" x2="39.17" y2="16.35" xlink:href="#a"/><linearGradient id="j" x1="41.02" y1="16.35" x2="42.88" y2="16.35" xlink:href="#a"/><linearGradient id="k" x1="33.62" y1="22.53" x2="35.47" y2="22.53" xlink:href="#a"/><linearGradient id="l" x1="37.32" y1="22.53" x2="39.17" y2="22.53" xlink:href="#a"/><linearGradient id="m" x1="41.02" y1="22.53" x2="42.88" y2="22.53" xlink:href="#a"/><linearGradient id="n" x1="7.7" y1="24.99" x2="9.55" y2="24.99" xlink:href="#a"/><linearGradient id="o" x1="11.4" y1="24.99" x2="13.25" y2="24.99" xlink:href="#a"/><linearGradient id="p" x1="15.1" y1="24.99" x2="16.96" y2="24.99" xlink:href="#a"/><linearGradient id="q" x1="7.7" y1="31.17" x2="9.55" y2="31.17" xlink:href="#a"/><linearGradient id="r" x1="11.4" y1="31.17" x2="13.25" y2="31.17" xlink:href="#a"/><linearGradient id="s" x1="15.1" y1="31.17" x2="16.96" y2="31.17" xlink:href="#a"/><linearGradient id="t" x1="7.7" y1="37.34" x2="9.55" y2="37.34" xlink:href="#a"/><linearGradient id="u" x1="11.4" y1="37.34" x2="13.25" y2="37.34" xlink:href="#a"/><linearGradient id="v" x1="15.1" y1="37.34" x2="16.96" y2="37.34" xlink:href="#a"/><linearGradient id="w" x1="7.7" y1="43.51" x2="9.55" y2="43.51" xlink:href="#a"/><linearGradient id="x" x1="11.4" y1="43.51" x2="13.25" y2="43.51" xlink:href="#a"/><linearGradient id="y" x1="15.1" y1="43.51" x2="16.96" y2="43.51" xlink:href="#a"/><linearGradient id="z" x1="41.02" y1="28.7" x2="42.88" y2="28.7" xlink:href="#a"/><linearGradient id="A" x1="41.02" y1="34.87" x2="42.88" y2="34.87" xlink:href="#a"/><linearGradient id="B" x1="41.02" y1="41.04" x2="42.88" y2="41.04" xlink:href="#a"/><linearGradient id="C" x1="41.02" y1="47.21" x2="42.88" y2="47.21" xlink:href="#a"/><linearGradient id="D" x1="16.34" y1="14.5" x2="25.6" y2="14.5" xlink:href="#a"/></defs><path d="M49.36 53.07h-1.55V4.63a.93.93 0 0 0-.92-.93H29.61a.93.93 0 0 0-.93.93v4h-1.85v-4a.93.93 0 0 0-.93-.93h-4V.93a.93.93 0 1 0-1.9 0V3.7h-4a.93.93 0 0 0-.93.93v4h-2.74a.93.93 0 0 0-.93.93v7.71H3.69a.93.93 0 0 0-.93.93v34.87H1.22a.93.93 0 0 0 0 1.86h48.14a.93.93 0 0 0 0-1.86zM17 5.55h8v3.09h-8zm-3.13 47.52h-.62v-1.54a.93.93 0 0 0-1.85 0v1.54h-.62V50h3.09zM20 29.31v23.76h-4.28v-4a.92.92 0 0 0-.92-.92H9.86a.93.93 0 0 0-.93.92v4H4.61V19.13H20v10.18zm.93-12h-7.68v-6.82h15.43v17.9h-6.79V25.3h2.78a.93.93 0 1 0 0-1.85h-2.78v-3.08h2.78a.93.93 0 0 0 0-1.86h-2.78v-.3a.92.92 0 0 0-.89-.93zm16.39 35.76H21.89V30.24h15.43zm8.64 0h-6.79v-25a.93.93 0 1 0-1.85 0v.31h-1.85v-.31a.93.93 0 1 0-1.85 0v.31h-3.09V5.55H46v47.52z" transform="translate(-.29)" fill="url(#a)"/><path d="M25.9 51.22a.92.92 0 0 0 .93-.92V33A.93.93 0 1 0 25 33v17.3a.92.92 0 0 0 .9.92z" transform="translate(-.29)" fill="url(#b)"/><path d="M29.61 51.22a.92.92 0 0 0 .92-.92V33a.93.93 0 1 0-1.85 0v17.3a.93.93 0 0 0 .93.92z" transform="translate(-.29)" fill="url(#c)"/><path d="M33.31 51.22a.93.93 0 0 0 .93-.92V33a.93.93 0 0 0-1.86 0v17.3a.93.93 0 0 0 .93.92z" transform="translate(-.29)" fill="url(#d)"/><path d="M34.54 11.73a.93.93 0 0 0 .93-.93V9.57a.93.93 0 1 0-1.85 0v1.23a.93.93 0 0 0 .92.93z" transform="translate(-.29)" fill="url(#e)"/><path d="M38.25 11.73a.93.93 0 0 0 .92-.93V9.57a.93.93 0 1 0-1.85 0v1.23a.93.93 0 0 0 .93.93z" transform="translate(-.29)" fill="url(#f)"/><path d="M42 11.73a.93.93 0 0 0 .93-.93V9.57a.93.93 0 0 0-1.86 0v1.23a.93.93 0 0 0 .93.93z" transform="translate(-.29)" fill="url(#g)"/><path d="M34.54 17.9a.93.93 0 0 0 .93-.93v-1.23a.93.93 0 1 0-1.85 0V17a.93.93 0 0 0 .92.9z" transform="translate(-.29)" fill="url(#h)"/><path d="M38.25 17.9a.93.93 0 0 0 .92-.93v-1.23a.93.93 0 1 0-1.85 0V17a.93.93 0 0 0 .93.9z" transform="translate(-.29)" fill="url(#i)"/><path d="M42 17.9a.93.93 0 0 0 .93-.93v-1.23a.93.93 0 0 0-1.86 0V17a.93.93 0 0 0 .93.9z" transform="translate(-.29)" fill="url(#j)"/><path d="M34.54 24.07a.93.93 0 0 0 .93-.93v-1.23a.93.93 0 1 0-1.85 0v1.23a.93.93 0 0 0 .92.93z" transform="translate(-.29)" fill="url(#k)"/><path d="M38.25 24.07a.93.93 0 0 0 .92-.93v-1.23a.93.93 0 1 0-1.85 0v1.23a.93.93 0 0 0 .93.93z" transform="translate(-.29)" fill="url(#l)"/><path d="M42 24.07a.93.93 0 0 0 .93-.93v-1.23a.93.93 0 0 0-1.86 0v1.23a.93.93 0 0 0 .93.93z" transform="translate(-.29)" fill="url(#m)"/><path d="M8.62 26.54a.93.93 0 0 0 .93-.93v-1.23a.93.93 0 1 0-1.85 0v1.23a.93.93 0 0 0 .92.93z" transform="translate(-.29)" fill="url(#n)"/><path d="M12.33 26.54a.93.93 0 0 0 .92-.93v-1.23a.93.93 0 1 0-1.85 0v1.23a.93.93 0 0 0 .93.93z" transform="translate(-.29)" fill="url(#o)"/><path d="M16 26.54a.93.93 0 0 0 .93-.93v-1.23a.93.93 0 1 0-1.86 0v1.23a.93.93 0 0 0 .93.93z" transform="translate(-.29)" fill="url(#p)"/><path d="M8.62 32.71a.93.93 0 0 0 .93-.93v-1.23a.93.93 0 1 0-1.85 0v1.23a.93.93 0 0 0 .92.93z" transform="translate(-.29)" fill="url(#q)"/><path d="M12.33 32.71a.93.93 0 0 0 .92-.93v-1.23a.93.93 0 1 0-1.85 0v1.23a.93.93 0 0 0 .93.93z" transform="translate(-.29)" fill="url(#r)"/><path d="M16 32.71a.93.93 0 0 0 .93-.93v-1.23a.93.93 0 1 0-1.86 0v1.23a.93.93 0 0 0 .93.93z" transform="translate(-.29)" fill="url(#s)"/><path d="M8.62 38.88a.92.92 0 0 0 .93-.88v-1.28a.93.93 0 1 0-1.85 0V38a.92.92 0 0 0 .92.88z" transform="translate(-.29)" fill="url(#t)"/><path d="M12.33 38.88a.92.92 0 0 0 .92-.93v-1.23a.93.93 0 1 0-1.85 0V38a.93.93 0 0 0 .93.88z" transform="translate(-.29)" fill="url(#u)"/><path d="M16 38.88a.93.93 0 0 0 1-.88v-1.28a.93.93 0 0 0-1.86 0V38a.93.93 0 0 0 .86.88z" transform="translate(-.29)" fill="url(#v)"/><path d="M8.62 45.05a.92.92 0 0 0 .93-.92v-1.24a.93.93 0 0 0-1.85 0v1.24a.92.92 0 0 0 .92.92z" transform="translate(-.29)" fill="url(#w)"/><path d="M12.33 45.05a.92.92 0 0 0 .92-.92v-1.24a.93.93 0 0 0-1.85 0v1.24a.93.93 0 0 0 .93.92z" transform="translate(-.29)" fill="url(#x)"/><path d="M16 45.05a.93.93 0 0 0 .93-.92v-1.24a.93.93 0 0 0-1.86 0v1.24a.93.93 0 0 0 .93.92z" transform="translate(-.29)" fill="url(#y)"/><path d="M42 30.24a.93.93 0 0 0 .93-.93v-1.23a.93.93 0 0 0-1.86 0v1.23a.93.93 0 0 0 .93.93z" transform="translate(-.29)" fill="url(#z)"/><path d="M42 36.41a.93.93 0 0 0 .93-.92v-1.24a.93.93 0 0 0-1.86 0v1.24a.93.93 0 0 0 .93.92z" transform="translate(-.29)" fill="url(#A)"/><path d="M42 42.58a.93.93 0 0 0 .93-.92v-1.24a.93.93 0 0 0-1.86 0v1.24a.93.93 0 0 0 .93.92z" transform="translate(-.29)" fill="url(#B)"/><path d="M42 48.75a.93.93 0 0 0 .93-.92v-1.24a.93.93 0 0 0-1.86 0v1.24a.93.93 0 0 0 .93.92z" transform="translate(-.29)" fill="url(#C)"/><path d="M25.6 14.5a.93.93 0 0 0-.93-.92h-7.41a.93.93 0 0 0 0 1.85h7.41a.93.93 0 0 0 .93-.93z" transform="translate(-.29)" fill="url(#D)"/></svg>