<svg xmlns="http://www.w3.org/2000/svg" viewBox="0 0 56 48.8"><path fill="#0a70c8" d="M52 22.6c1-1 1.3-2.4.9-3.7-.4-1.3-1.5-2.2-2.9-2.4l-12-1.8c-.5-.1-1-.4-1.2-.9l-5.4-11c-.6-1.2-1.8-2-3.2-2-1.4 0-2.6.8-3.2 2l-5.4 11c-.2.5-.7.8-1.2.9L6.2 16.5c-1.4.2-2.5 1.1-2.9 2.4-.4 1.3-.1 2.7.9 3.7l8.8 8.5c.4.4.5.9.5 1.4l-2.1 12.1c-.2 1.4.3 2.7 1.4 3.5 1.1.8 2.6.9 3.8.3l10.8-5.7c.5-.2 1-.2 1.5 0l10.8 5.7c.5.3 1.1.4 1.7.4.7 0 1.5-.2 2.1-.7 1.1-.8 1.7-2.2 1.4-3.5l-2.1-12.1c-.1-.5.1-1 .5-1.4l8.7-8.5zM40.9 32.9L43 45c.1.6-.1 1.2-.6 1.5-.5.4-1.1.4-1.7.1l-10.8-5.7c-.5-.3-1.1-.4-1.7-.4s-1.1.1-1.7.4l-10.8 5.7c-.5.3-1.2.2-1.7-.1-.5-.4-.7-.9-.6-1.5l2.1-12.1c.2-1.2-.2-2.4-1-3.2l-8.8-8.5c-.4-.4-.6-1-.4-1.6.2-.6.7-1 1.3-1.1l12.1-1.8c1.2-.2 2.2-.9 2.7-2l5.4-11c.3-.6.8-.9 1.4-.9.6 0 1.1.3 1.4.9l5.4 11c.5 1.1 1.5 1.8 2.7 2l12.1 1.8c.6.1 1.1.5 1.3 1.1.2.6 0 1.2-.4 1.6l-8.8 8.5c-.9.8-1.2 2-1 3.2z" /></svg>