<svg xmlns="http://www.w3.org/2000/svg" viewBox="0 0 65 64.5"><linearGradient id="a" gradientUnits="userSpaceOnUse" x1="14.405" y1="15.258" x2="50.595" y2="15.258" gradientTransform="matrix(1 0 0 -1 0 47.997)"><stop offset="0" stop-color="#188ac7"/><stop offset="1" stop-color="#85b8dc"/></linearGradient><path d="M49.5 30.1L35.1 15.7c-1.5-1.4-3.8-1.4-5.3 0L15.5 30.1c-1.4 1.5-1.4 3.8 0 5.3l14.4 14.4c1.5 1.5 3.8 1.5 5.3 0l14.4-14.4c1.4-1.5 1.4-3.8-.1-5.3zm-1 4.3L34.1 48.7c-.9.9-2.4.9-3.3 0L16.5 34.4c-.9-.9-.9-2.4 0-3.3l14.4-14.4c.9-.9 2.4-.9 3.3 0l14.4 14.4c.8.9.8 2.4-.1 3.3z" fill="url(#a)"/><linearGradient id="b" gradientUnits="userSpaceOnUse" x1="17.232" y1="15.262" x2="47.717" y2="15.262" gradientTransform="matrix(1 0 0 -1 0 47.997)"><stop offset="0" stop-color="#188ac7"/><stop offset="1" stop-color="#85b8dc"/></linearGradient><path d="M47.5 32.1L33.1 17.7c-.4-.3-.9-.3-1.3 0L17.5 32.1c-.3.4-.3.9 0 1.3l14.4 14.4c.4.3.9.3 1.3 0l10.4-10.4.4-.4c.3-.2.4-.7.2-1s-.7-.4-1-.2c-.2 0-.2.1-.3.2l-.4.4-10 10-13.6-13.7 13.6-13.6 14 14c.3.3.7.3 1 0 .3-.3.3-.7 0-1z" fill="url(#b)"/><linearGradient id="c" gradientUnits="userSpaceOnUse" x1="44.154" y1="13" x2="45.587" y2="13" gradientTransform="matrix(1 0 0 -1 0 47.997)"><stop offset="0" stop-color="#188ac7"/><stop offset="1" stop-color="#85b8dc"/></linearGradient><path d="M45.4 34.5c-.3-.3-.7-.3-1 0-.3.3-.3.7 0 1 .3.3.7.3 1 0 .2-.3.2-.7 0-1z" fill="url(#c)"/><linearGradient id="d" gradientUnits="userSpaceOnUse" x1="25.884" y1="13.37" x2="39.116" y2="13.37" gradientTransform="matrix(1 0 0 -1 0 47.997)"><stop offset="0" stop-color="#188ac7"/><stop offset="1" stop-color="#85b8dc"/></linearGradient><path d="M38.4 26.9c-.4 0-.7.3-.7.7V30h-3.6c-.4 0-.7.3-.7.7V41h-1.7V30.7c0-.4-.3-.7-.7-.7h-3.6v-1.7h6.3c.4 0 .7-.3.7-.7s-.3-.7-.7-.7h-7c-.4 0-.7.3-.7.7v3.1c0 .4.3.7.7.7h3.6v10.2c0 .4.3.7.7.7h3.1c.4 0 .7-.3.7-.7V31.4h3.6c.4 0 .7-.3.7-.7v-3.1c0-.4-.3-.7-.7-.7z" fill="url(#d)"/><linearGradient id="e" gradientUnits="userSpaceOnUse" x1="34.975" y1="20.376" x2="36.423" y2="20.376" gradientTransform="matrix(1 0 0 -1 0 47.997)"><stop offset="0" stop-color="#188ac7"/><stop offset="1" stop-color="#85b8dc"/></linearGradient><path d="M35.7 26.9c-.4 0-.7.3-.7.7s.3.7.7.7c.4 0 .7-.3.7-.7s-.3-.7-.7-.7z" fill="url(#e)"/><circle cx="32.4" cy="32.4" r="31.1" fill="none" stroke="#e8e8e8" stroke-miterlimit="10"/></svg>