<svg xmlns="http://www.w3.org/2000/svg" viewBox="0 0 68.4 66.3"><linearGradient id="a" gradientUnits="userSpaceOnUse" x1="16.333" y1="43.84" x2="32.655" y2="43.84" gradientTransform="matrix(1 0 0 -1 0 66)"><stop offset="0" stop-color="#188ac7"/><stop offset="1" stop-color="#85b8dc"/></linearGradient><path d="M17.6 30.3h13.7c.7 0 1.3-.5 1.3-1.2V15.3c0-.7-.6-1.3-1.2-1.3H17.6c-.7 0-1.3.6-1.3 1.2V29c0 .7.6 1.3 1.3 1.3zm1.3-13.8h11.2v11.2H18.9V16.5z" fill="url(#a)"/><linearGradient id="b" gradientUnits="userSpaceOnUse" x1="36.133" y1="43.86" x2="52.444" y2="43.86" gradientTransform="matrix(1 0 0 -1 0 66)"><stop offset="0" stop-color="#188ac7"/><stop offset="1" stop-color="#85b8dc"/></linearGradient><path d="M52.4 15.3c0-.7-.6-1.3-1.2-1.3H37.4c-.7 0-1.3.6-1.3 1.2V29c0 .7.5 1.3 1.2 1.3h13.8c.7 0 1.3-.6 1.3-1.2V15.3zm-2.5 12.5H38.7V16.5h11.2v11.3z" fill="url(#b)"/><linearGradient id="c" gradientUnits="userSpaceOnUse" x1="16.333" y1="24.045" x2="32.653" y2="24.045" gradientTransform="matrix(1 0 0 -1 0 66)"><stop offset="0" stop-color="#188ac7"/><stop offset="1" stop-color="#85b8dc"/></linearGradient><path d="M17.6 50.1h13.7c.7 0 1.3-.5 1.3-1.2V35.1c0-.7-.6-1.3-1.2-1.3H17.6c-.7 0-1.3.6-1.3 1.2v13.8c0 .7.6 1.3 1.3 1.3zm1.3-13.8h11.2v11.2H18.9V36.3z" fill="url(#c)"/><linearGradient id="d" gradientUnits="userSpaceOnUse" x1="36.133" y1="24.045" x2="52.443" y2="24.045" gradientTransform="matrix(1 0 0 -1 0 66)"><stop offset="0" stop-color="#188ac7"/><stop offset="1" stop-color="#85b8dc"/></linearGradient><path d="M51.2 33.8H37.4c-.7 0-1.3.6-1.3 1.2v13.8c0 .7.6 1.3 1.2 1.3h13.8c.7 0 1.3-.6 1.3-1.2V35.1c0-.7-.5-1.3-1.2-1.3zm-1.3 13.8H38.7V36.3h11.2v11.3z" fill="url(#d)"/><circle cx="34.8" cy="33.4" r="31.1" fill="none" stroke="#e8e8e8" stroke-miterlimit="10"/></svg>