<svg xmlns="http://www.w3.org/2000/svg" viewBox="0 0 65 64.5"><linearGradient id="a" gradientUnits="userSpaceOnUse" x1="31.27" y1="1511.903" x2="32.67" y2="1511.903" gradientTransform="translate(0 -1493.92)"><stop offset="0" stop-color="#188ac7"/><stop offset="1" stop-color="#85b8dc"/></linearGradient><path d="M32 18.6c.4 0 .7-.3.7-.7-.1-.4-.5-.6-.9-.6-.3.1-.5.2-.6.5.1.4.4.7.8.8z" fill="url(#a)"/><linearGradient id="b" gradientUnits="userSpaceOnUse" x1="25.65" y1="1525.453" x2="38.29" y2="1525.453" gradientTransform="translate(0 -1493.92)"><stop offset="0" stop-color="#188ac7"/><stop offset="1" stop-color="#85b8dc"/></linearGradient><path d="M34.1 31.5c2.3 0 4.2-1.8 4.2-4.2 0-2.3-1.8-4.2-4.2-4.2h-6.3c-.4 0-.7.3-.7.6v6.4h-.7c-.4-.1-.8.2-.9.6-.1.4.2.8.6.9h1v2.8h-.7c-.4 0-.7.3-.7.7s.3.7.7.7h.7v3.5c.1.4.5.6.9.6.3-.1.5-.3.6-.6v-3.5h4.9c.4 0 .7-.3.7-.7 0-.4-.3-.7-.7-.7h-4.9v-2.8l5.5-.1zm-5.6-7h5.6c1.5-.1 2.9 1.1 3 2.6.1 1.5-1.1 2.9-2.6 3h-5.9v-5.6h-.1z" fill="url(#b)"/><linearGradient id="c" gradientUnits="userSpaceOnUse" x1="14" y1="1524.753" x2="49.94" y2="1524.753" gradientTransform="translate(0 -1493.92)"><stop offset="0" stop-color="#188ac7"/><stop offset="1" stop-color="#85b8dc"/></linearGradient><path d="M32 48.8c9.9-.2 17.8-8.1 18-18-.2-9.9-8.1-17.8-18-18-9.9.2-17.9 8.2-18 18.1.2 9.8 8.1 17.8 18 17.9zm0-34.5c9 .2 16.3 7.5 16.6 16.6-.2 9-7.5 16.3-16.6 16.6-9-.3-16.3-7.6-16.6-16.6.3-9.1 7.6-16.4 16.6-16.6z" fill="url(#c)"/><linearGradient id="d" gradientUnits="userSpaceOnUse" x1="18.21" y1="1524.953" x2="45.71" y2="1524.953" gradientTransform="translate(0 -1493.92)"><stop offset="0" stop-color="#188ac7"/><stop offset="1" stop-color="#85b8dc"/></linearGradient><path d="M32 44.6c7.5-.2 13.6-6.2 13.8-13.8-.2-6.3-4.6-11.8-10.8-13.3-.4-.1-.7.1-.9.5-.1.4.1.7.5.9 5.6 1.4 9.6 6.3 9.7 12.1-.2 6.7-5.6 12.1-12.4 12.3-6.8-.2-12.2-5.6-12.4-12.4.3-5.8 4.2-10.7 9.8-12.1.4-.2.5-.6.4-.9v-.1c-.1-.2-.4-.4-.6-.4-6.3 1.5-10.7 7-10.8 13.4 0 7.6 6.1 13.7 13.7 13.8z" fill="url(#d)"/><circle cx="32.4" cy="32.2" r="31.1" fill="none" stroke="#e8e8e8" stroke-miterlimit="10"/></svg>