<svg xmlns="http://www.w3.org/2000/svg" viewBox="0 0 64.3 65.8"><linearGradient id="a" gradientUnits="userSpaceOnUse" x1="13.957" y1="798.072" x2="50.017" y2="798.072" gradientTransform="translate(-.29 -766.59)"><stop offset="0" stop-color="#188ac7"/><stop offset="1" stop-color="#85b8dc"/></linearGradient><path d="M49.1 50H48V15c0-.4-.3-.7-.7-.7H34.8c-.4 0-.7.3-.7.7v2.9h-1.3V15c0-.4-.3-.7-.7-.7h-2.9v-2c0-.4-.3-.7-.7-.7-.4 0-.7.3-.7.7v2H25c-.4 0-.7.3-.7.7v2.9h-2c-.4 0-.7.3-.7.7v5.6h-5.5c-.4 0-.7.3-.7.7V50h-1.1c-.4 0-.7.3-.7.7 0 .4.3.7.7.7H49c.4 0 .7-.3.7-.7 0-.4-.3-.7-.6-.7zM25.7 15.7h5.8v2.2h-5.8v-2.2zM23.5 50H23v-1.1c0-.4-.4-.6-.7-.6-.3 0-.6.3-.6.6V50h-.4v-2.2h2.2V50zm4.4-17.2V50h-3.1v-2.9c0-.4-.3-.7-.7-.7h-3.6c-.4 0-.7.3-.7.7V50h-3.1V25.5h11.1l.1 7.3zm.7-8.6H23v-4.9h11.1v12.9h-4.9V30h2c.4.1.7-.2.8-.5.1-.4-.2-.7-.5-.8h-2.2v-2.2h2c.4 0 .7-.3.7-.7 0-.4-.3-.7-.7-.7h-2v-.2c0-.4-.3-.7-.7-.7zM40.4 50H29.2V33.5h11.1V50zm6.2 0h-4.9V32c.1-.4-.2-.7-.5-.8s-.7.2-.8.5v.4H39V32c0-.4-.2-.7-.6-.8s-.7.2-.8.6v.3h-2.2V15.7h11.2V50z" fill="url(#a)"/><linearGradient id="b" gradientUnits="userSpaceOnUse" x1="31.767" y1="808.251" x2="33.097" y2="808.251" gradientTransform="translate(-.29 -766.59)"><stop offset="0" stop-color="#188ac7"/><stop offset="1" stop-color="#85b8dc"/></linearGradient><path d="M32.1 48.7c.4 0 .7-.3.7-.6V35.5c.1-.4-.1-.7-.5-.8h-.1c-.4-.1-.7.2-.8.5V48c.1.3.3.6.7.7z" fill="url(#b)"/><linearGradient id="c" gradientUnits="userSpaceOnUse" x1="34.437" y1="808.295" x2="35.767" y2="808.295" gradientTransform="translate(-.29 -766.59)"><stop offset="0" stop-color="#188ac7"/><stop offset="1" stop-color="#85b8dc"/></linearGradient><path d="M34.8 48.7c.4 0 .7-.3.7-.7V35.5c0-.4-.2-.7-.6-.7-.4 0-.7.2-.7.6V48c-.1.3.2.6.6.7z" fill="url(#c)"/><linearGradient id="d" gradientUnits="userSpaceOnUse" x1="37.096" y1="808.327" x2="38.447" y2="808.327" gradientTransform="translate(-.29 -766.59)"><stop offset="0" stop-color="#188ac7"/><stop offset="1" stop-color="#85b8dc"/></linearGradient><path d="M37.5 48.7c.4 0 .7-.3.7-.7V35.5c0-.4-.3-.7-.7-.7-.4 0-.7.3-.7.7V48c0 .3.3.7.7.7z" fill="url(#d)"/><linearGradient id="e" gradientUnits="userSpaceOnUse" x1="37.997" y1="785.573" x2="39.327" y2="785.573" gradientTransform="translate(-.29 -766.59)"><stop offset="0" stop-color="#188ac7"/><stop offset="1" stop-color="#85b8dc"/></linearGradient><path d="M38.4 20.1c.4 0 .7-.3.7-.7v-.9c0-.4-.2-.7-.6-.8-.4 0-.7.2-.8.6v1c0 .5.3.8.7.8-.1 0 0 0 0 0z" fill="url(#e)"/><linearGradient id="f" gradientUnits="userSpaceOnUse" x1="40.667" y1="785.561" x2="41.997" y2="785.561" gradientTransform="translate(-.29 -766.59)"><stop offset="0" stop-color="#188ac7"/><stop offset="1" stop-color="#85b8dc"/></linearGradient><path d="M41 20.1c.4 0 .6-.3.6-.7v-.9c.1-.4-.2-.7-.5-.8-.4-.1-.7.2-.8.5v1.1c0 .5.3.8.7.8z" fill="url(#f)"/><linearGradient id="g" gradientUnits="userSpaceOnUse" x1="43.337" y1="785.617" x2="44.677" y2="785.617" gradientTransform="translate(-.29 -766.59)"><stop offset="0" stop-color="#188ac7"/><stop offset="1" stop-color="#85b8dc"/></linearGradient><path d="M43.7 20.1c.4 0 .7-.3.7-.7v-.9c0-.4-.3-.7-.7-.7-.4 0-.7.3-.7.7v.9c.1.4.4.7.7.7z" fill="url(#g)"/><linearGradient id="h" gradientUnits="userSpaceOnUse" x1="37.997" y1="790.023" x2="39.327" y2="790.023" gradientTransform="translate(-.29 -766.59)"><stop offset="0" stop-color="#188ac7"/><stop offset="1" stop-color="#85b8dc"/></linearGradient><path d="M38.4 24.6c.4 0 .7-.3.7-.7V23c0-.4-.2-.7-.6-.8s-.7.2-.8.6v1c0 .5.3.8.7.8z" fill="url(#h)"/><linearGradient id="i" gradientUnits="userSpaceOnUse" x1="40.667" y1="790.011" x2="41.997" y2="790.011" gradientTransform="translate(-.29 -766.59)"><stop offset="0" stop-color="#188ac7"/><stop offset="1" stop-color="#85b8dc"/></linearGradient><path d="M41 24.6c.4 0 .7-.3.7-.7V23c.1-.4-.2-.7-.5-.8-.4-.1-.7.2-.8.5v1.1c0 .5.3.8.6.8z" fill="url(#i)"/><linearGradient id="j" gradientUnits="userSpaceOnUse" x1="43.337" y1="790.067" x2="44.677" y2="790.067" gradientTransform="translate(-.29 -766.59)"><stop offset="0" stop-color="#188ac7"/><stop offset="1" stop-color="#85b8dc"/></linearGradient><path d="M43.7 24.6c.4 0 .7-.3.7-.7V23c0-.4-.3-.7-.7-.7-.4 0-.7.3-.7.7v.9c.1.4.4.7.7.7z" fill="url(#j)"/><linearGradient id="k" gradientUnits="userSpaceOnUse" x1="37.997" y1="794.473" x2="39.327" y2="794.473" gradientTransform="translate(-.29 -766.59)"><stop offset="0" stop-color="#188ac7"/><stop offset="1" stop-color="#85b8dc"/></linearGradient><path d="M38.4 29c.4 0 .7-.3.7-.7v-.9c0-.4-.2-.7-.6-.8s-.7.2-.8.6v1c0 .5.3.8.7.8-.1 0 0 0 0 0z" fill="url(#k)"/><linearGradient id="l" gradientUnits="userSpaceOnUse" x1="40.667" y1="794.461" x2="41.997" y2="794.461" gradientTransform="translate(-.29 -766.59)"><stop offset="0" stop-color="#188ac7"/><stop offset="1" stop-color="#85b8dc"/></linearGradient><path d="M41 29c.4 0 .6-.3.6-.7v-.9c.1-.4-.2-.7-.5-.8s-.7.2-.8.5v1.1c0 .5.3.8.7.8z" fill="url(#l)"/><linearGradient id="m" gradientUnits="userSpaceOnUse" x1="43.337" y1="794.517" x2="44.677" y2="794.517" gradientTransform="translate(-.29 -766.59)"><stop offset="0" stop-color="#188ac7"/><stop offset="1" stop-color="#85b8dc"/></linearGradient><path d="M43.7 29c.4 0 .7-.3.7-.7v-.9c0-.4-.3-.7-.7-.7-.4 0-.7.3-.7.7v.9c.1.4.4.7.7.7z" fill="url(#m)"/><linearGradient id="n" gradientUnits="userSpaceOnUse" x1="19.297" y1="796.265" x2="20.637" y2="796.265" gradientTransform="translate(-.29 -766.59)"><stop offset="0" stop-color="#188ac7"/><stop offset="1" stop-color="#85b8dc"/></linearGradient><path d="M19.7 30.8c.4 0 .7-.3.7-.7v-.9c0-.4-.2-.7-.6-.7-.4 0-.7.2-.7.6v1c-.1.4.2.7.6.7z" fill="url(#n)"/><linearGradient id="o" gradientUnits="userSpaceOnUse" x1="21.967" y1="796.262" x2="23.307" y2="796.262" gradientTransform="translate(-.29 -766.59)"><stop offset="0" stop-color="#188ac7"/><stop offset="1" stop-color="#85b8dc"/></linearGradient><path d="M22.3 30.8c.4 0 .7-.3.7-.7v-.9c0-.4-.2-.7-.6-.7-.4 0-.7.2-.7.6v1c0 .4.3.7.6.7z" fill="url(#o)"/><linearGradient id="p" gradientUnits="userSpaceOnUse" x1="24.637" y1="796.302" x2="25.977" y2="796.302" gradientTransform="translate(-.29 -766.59)"><stop offset="0" stop-color="#188ac7"/><stop offset="1" stop-color="#85b8dc"/></linearGradient><path d="M25 30.8c.4 0 .7-.3.7-.7v-.9c0-.4-.3-.7-.7-.7-.4 0-.7.3-.7.7v.9c0 .4.3.7.7.7z" fill="url(#p)"/><linearGradient id="q" gradientUnits="userSpaceOnUse" x1="19.297" y1="800.715" x2="20.637" y2="800.715" gradientTransform="translate(-.29 -766.59)"><stop offset="0" stop-color="#188ac7"/><stop offset="1" stop-color="#85b8dc"/></linearGradient><path d="M19.7 35.3c.4 0 .7-.3.7-.7v-.9c0-.4-.2-.7-.6-.7-.4 0-.7.2-.7.6v1c-.1.4.2.7.6.7z" fill="url(#q)"/><linearGradient id="r" gradientUnits="userSpaceOnUse" x1="21.967" y1="800.712" x2="23.307" y2="800.712" gradientTransform="translate(-.29 -766.59)"><stop offset="0" stop-color="#188ac7"/><stop offset="1" stop-color="#85b8dc"/></linearGradient><path d="M22.3 35.3c.4 0 .7-.3.7-.7v-.9c0-.4-.2-.7-.6-.7-.4 0-.7.2-.7.6v1c0 .3.3.6.6.7z" fill="url(#r)"/><linearGradient id="s" gradientUnits="userSpaceOnUse" x1="24.637" y1="800.752" x2="25.977" y2="800.752" gradientTransform="translate(-.29 -766.59)"><stop offset="0" stop-color="#188ac7"/><stop offset="1" stop-color="#85b8dc"/></linearGradient><path d="M25 35.3c.4 0 .7-.3.7-.7v-.9c0-.4-.3-.7-.7-.7-.4 0-.7.3-.7.7v.9c0 .4.3.7.7.7z" fill="url(#s)"/><linearGradient id="t" gradientUnits="userSpaceOnUse" x1="19.297" y1="805.165" x2="20.637" y2="805.165" gradientTransform="translate(-.29 -766.59)"><stop offset="0" stop-color="#188ac7"/><stop offset="1" stop-color="#85b8dc"/></linearGradient><path d="M19.7 39.7c.4 0 .7-.3.7-.6v-.9c0-.4-.2-.7-.6-.7-.4 0-.7.2-.7.6v1.1c-.1.2.2.5.6.5z" fill="url(#t)"/><linearGradient id="u" gradientUnits="userSpaceOnUse" x1="21.967" y1="805.162" x2="23.307" y2="805.162" gradientTransform="translate(-.29 -766.59)"><stop offset="0" stop-color="#188ac7"/><stop offset="1" stop-color="#85b8dc"/></linearGradient><path d="M22.3 39.7c.4 0 .7-.3.7-.7v-.9c0-.4-.2-.7-.6-.7-.4 0-.7.2-.7.6v1.1c0 .3.3.6.6.6z" fill="url(#u)"/><linearGradient id="v" gradientUnits="userSpaceOnUse" x1="24.637" y1="805.202" x2="25.977" y2="805.202" gradientTransform="translate(-.29 -766.59)"><stop offset="0" stop-color="#188ac7"/><stop offset="1" stop-color="#85b8dc"/></linearGradient><path d="M25 39.7c.4 0 .7-.3.7-.6v-.9c0-.4-.3-.7-.7-.7-.4 0-.7.3-.7.7v.9c.1.3.4.6.7.6z" fill="url(#v)"/><linearGradient id="w" gradientUnits="userSpaceOnUse" x1="19.297" y1="809.677" x2="20.637" y2="809.677" gradientTransform="translate(-.29 -766.59)"><stop offset="0" stop-color="#188ac7"/><stop offset="1" stop-color="#85b8dc"/></linearGradient><path d="M19.7 44.2c.4 0 .7-.3.7-.7v-.8c0-.4-.3-.7-.7-.7-.4 0-.7.3-.7.7v.9c0 .3.3.6.7.6z" fill="url(#w)"/><linearGradient id="x" gradientUnits="userSpaceOnUse" x1="21.967" y1="809.674" x2="23.307" y2="809.674" gradientTransform="translate(-.29 -766.59)"><stop offset="0" stop-color="#188ac7"/><stop offset="1" stop-color="#85b8dc"/></linearGradient><path d="M22.3 44.2c.4 0 .7-.3.7-.7v-.8c0-.4-.3-.7-.7-.7-.4 0-.7.3-.7.7v.9c.1.3.4.6.7.6z" fill="url(#x)"/><linearGradient id="y" gradientUnits="userSpaceOnUse" x1="24.637" y1="809.677" x2="25.977" y2="809.677" gradientTransform="translate(-.29 -766.59)"><stop offset="0" stop-color="#188ac7"/><stop offset="1" stop-color="#85b8dc"/></linearGradient><path d="M25 44.2c.4 0 .7-.3.7-.7v-.8c0-.4-.3-.7-.7-.7-.4 0-.7.3-.7.7v.9c.1.3.3.6.7.6z" fill="url(#y)"/><linearGradient id="z" gradientUnits="userSpaceOnUse" x1="43.337" y1="798.972" x2="44.677" y2="798.972" gradientTransform="translate(-.29 -766.59)"><stop offset="0" stop-color="#188ac7"/><stop offset="1" stop-color="#85b8dc"/></linearGradient><path d="M43.7 33.5c.4 0 .7-.3.7-.7v-.9c0-.4-.3-.7-.7-.7-.4 0-.7.3-.7.7v.9c.1.4.4.7.7.7z" fill="url(#z)"/><linearGradient id="A" gradientUnits="userSpaceOnUse" x1="43.337" y1="803.422" x2="44.677" y2="803.422" gradientTransform="translate(-.29 -766.59)"><stop offset="0" stop-color="#188ac7"/><stop offset="1" stop-color="#85b8dc"/></linearGradient><path d="M43.7 37.9c.4 0 .7-.3.7-.7v-.9c0-.4-.3-.7-.7-.7-.4 0-.7.3-.7.7v.9c.1.4.4.7.7.7z" fill="url(#A)"/><linearGradient id="B" gradientUnits="userSpaceOnUse" x1="43.337" y1="807.872" x2="44.677" y2="807.872" gradientTransform="translate(-.29 -766.59)"><stop offset="0" stop-color="#188ac7"/><stop offset="1" stop-color="#85b8dc"/></linearGradient><path d="M43.7 42.4c.4 0 .7-.3.7-.7v-.9c0-.4-.3-.7-.7-.7-.4 0-.7.3-.7.7v.9c.1.4.4.7.7.7z" fill="url(#B)"/><linearGradient id="C" gradientUnits="userSpaceOnUse" x1="43.337" y1="812.322" x2="44.677" y2="812.322" gradientTransform="translate(-.29 -766.59)"><stop offset="0" stop-color="#188ac7"/><stop offset="1" stop-color="#85b8dc"/></linearGradient><path d="M43.7 46.8c.4 0 .7-.3.7-.7v-.9c0-.4-.3-.7-.7-.7-.4 0-.7.3-.7.7v.9c.1.4.4.7.7.7z" fill="url(#C)"/><linearGradient id="D" gradientUnits="userSpaceOnUse" x1="25.537" y1="788.732" x2="32.207" y2="788.732" gradientTransform="translate(-.29 -766.59)"><stop offset="0" stop-color="#188ac7"/><stop offset="1" stop-color="#85b8dc"/></linearGradient><path d="M31.9 22.1c0-.4-.3-.7-.7-.7h-5.3c-.4 0-.6.4-.6.7 0 .3.3.6.6.6h5.3c.4.1.7-.2.7-.6z" fill="url(#D)"/><circle cx="32.1" cy="33.1" r="31.1" fill="none" stroke="#e8e8e8" stroke-miterlimit="10"/></svg>